<mxfile host="app.diagrams.net" agent="Mozilla/5.0 (Windows NT 10.0; Win64; x64) AppleWebKit/537.36 (KHTML, like Gecko) Chrome/130.0.0.0 Safari/537.36" version="24.8.4">
  <diagram name="Page-1" id="n1Y9XBs8a5-MVXBTAhxJ">
    <mxGraphModel dx="2261" dy="696" grid="1" gridSize="10" guides="1" tooltips="1" connect="1" arrows="1" fold="1" page="1" pageScale="1" pageWidth="827" pageHeight="1169" math="0" shadow="0">
      <root>
        <mxCell id="0" />
        <mxCell id="1" parent="0" />
        <mxCell id="wgSMhbIbBcDnjp7fuCrP-1" value="USER_ACCOUNT" style="rounded=0;whiteSpace=wrap;html=1;" parent="1" vertex="1">
          <mxGeometry x="-380" y="206.29000000000002" width="120" height="60" as="geometry" />
        </mxCell>
        <mxCell id="wgSMhbIbBcDnjp7fuCrP-2" value="" style="endArrow=none;html=1;rounded=0;entryX=0.246;entryY=0.766;entryDx=0;entryDy=0;entryPerimeter=0;" parent="1" target="wgSMhbIbBcDnjp7fuCrP-3" edge="1">
          <mxGeometry width="50" height="50" relative="1" as="geometry">
            <mxPoint x="-286.69" y="206.29000000000002" as="sourcePoint" />
            <mxPoint x="-256.69" y="176.29000000000002" as="targetPoint" />
            <Array as="points">
              <mxPoint x="-256.69" y="176.29000000000002" />
              <mxPoint x="-246.69" y="166.29000000000002" />
            </Array>
          </mxGeometry>
        </mxCell>
        <mxCell id="wgSMhbIbBcDnjp7fuCrP-3" value="NAME" style="ellipse;whiteSpace=wrap;html=1;" parent="1" vertex="1">
          <mxGeometry x="-265" y="131.29000000000002" width="100" height="35" as="geometry" />
        </mxCell>
        <mxCell id="wgSMhbIbBcDnjp7fuCrP-4" value="" style="endArrow=none;html=1;rounded=0;entryX=0;entryY=0.75;entryDx=0;entryDy=0;" parent="1" target="wgSMhbIbBcDnjp7fuCrP-1" edge="1">
          <mxGeometry width="50" height="50" relative="1" as="geometry">
            <mxPoint x="-450" y="211.29000000000002" as="sourcePoint" />
            <mxPoint x="-390" y="251.29000000000002" as="targetPoint" />
          </mxGeometry>
        </mxCell>
        <mxCell id="wgSMhbIbBcDnjp7fuCrP-5" value="TABLE_ID" style="ellipse;whiteSpace=wrap;html=1;" parent="1" vertex="1">
          <mxGeometry x="-560" y="331.29" width="100" height="30" as="geometry" />
        </mxCell>
        <mxCell id="wgSMhbIbBcDnjp7fuCrP-6" value="" style="endArrow=none;html=1;rounded=0;entryX=0;entryY=0.5;entryDx=0;entryDy=0;exitX=1;exitY=0.75;exitDx=0;exitDy=0;" parent="1" source="wgSMhbIbBcDnjp7fuCrP-1" target="wgSMhbIbBcDnjp7fuCrP-7" edge="1">
          <mxGeometry width="50" height="50" relative="1" as="geometry">
            <mxPoint x="-270" y="261.29" as="sourcePoint" />
            <mxPoint x="-130" y="281.29" as="targetPoint" />
          </mxGeometry>
        </mxCell>
        <mxCell id="wgSMhbIbBcDnjp7fuCrP-7" value="HAS_ROLE" style="rhombus;whiteSpace=wrap;html=1;" parent="1" vertex="1">
          <mxGeometry x="-170" y="241.29000000000002" width="80" height="80" as="geometry" />
        </mxCell>
        <mxCell id="wgSMhbIbBcDnjp7fuCrP-8" value="" style="endArrow=none;html=1;rounded=0;" parent="1" edge="1">
          <mxGeometry width="50" height="50" relative="1" as="geometry">
            <mxPoint x="-90" y="281.29" as="sourcePoint" />
            <mxPoint x="-10" y="301.29" as="targetPoint" />
          </mxGeometry>
        </mxCell>
        <mxCell id="wgSMhbIbBcDnjp7fuCrP-9" value="USER_ROLES" style="rounded=0;whiteSpace=wrap;html=1;" parent="1" vertex="1">
          <mxGeometry x="-10" y="281.29" width="120" height="48.71" as="geometry" />
        </mxCell>
        <mxCell id="wgSMhbIbBcDnjp7fuCrP-10" value="" style="endArrow=none;html=1;rounded=0;" parent="1" edge="1">
          <mxGeometry width="50" height="50" relative="1" as="geometry">
            <mxPoint y="281.29" as="sourcePoint" />
            <mxPoint y="241.29000000000002" as="targetPoint" />
          </mxGeometry>
        </mxCell>
        <mxCell id="wgSMhbIbBcDnjp7fuCrP-11" value="ROLE_ID" style="ellipse;whiteSpace=wrap;html=1;" parent="1" vertex="1">
          <mxGeometry x="-50" y="206.29000000000002" width="100" height="35" as="geometry" />
        </mxCell>
        <mxCell id="wgSMhbIbBcDnjp7fuCrP-12" value="ROLE_NAME&lt;span style=&quot;color: rgba(0, 0, 0, 0); font-family: monospace; font-size: 0px; text-align: start; text-wrap-mode: nowrap;&quot;&gt;%3CmxGraphModel%3E%3Croot%3E%3CmxCell%20id%3D%220%22%2F%3E%3CmxCell%20id%3D%221%22%20parent%3D%220%22%2F%3E%3CmxCell%20id%3D%222%22%20value%3D%22ROLE_ID%22%20style%3D%22ellipse%3BwhiteSpace%3Dwrap%3Bhtml%3D1%3B%22%20vertex%3D%221%22%20parent%3D%221%22%3E%3CmxGeometry%20x%3D%22510%22%20y%3D%22115%22%20width%3D%22100%22%20height%3D%2235%22%20as%3D%22geometry%22%2F%3E%3C%2FmxCell%3E%3C%2Froot%3E%3C%2FmxGraphModel%3E&lt;/span&gt;" style="ellipse;whiteSpace=wrap;html=1;" parent="1" vertex="1">
          <mxGeometry x="50" y="186.29000000000002" width="100" height="35" as="geometry" />
        </mxCell>
        <mxCell id="wgSMhbIbBcDnjp7fuCrP-13" value="" style="endArrow=none;html=1;rounded=0;" parent="1" target="wgSMhbIbBcDnjp7fuCrP-12" edge="1">
          <mxGeometry width="50" height="50" relative="1" as="geometry">
            <mxPoint x="30" y="281.29" as="sourcePoint" />
            <mxPoint x="80" y="231.29000000000002" as="targetPoint" />
          </mxGeometry>
        </mxCell>
        <mxCell id="wgSMhbIbBcDnjp7fuCrP-14" value="DESC" style="ellipse;whiteSpace=wrap;html=1;" parent="1" vertex="1">
          <mxGeometry x="150" y="206.29000000000002" width="100" height="35" as="geometry" />
        </mxCell>
        <mxCell id="wgSMhbIbBcDnjp7fuCrP-15" value="" style="endArrow=none;html=1;rounded=0;entryX=0.336;entryY=0.891;entryDx=0;entryDy=0;entryPerimeter=0;exitX=0.75;exitY=0;exitDx=0;exitDy=0;" parent="1" source="wgSMhbIbBcDnjp7fuCrP-9" target="wgSMhbIbBcDnjp7fuCrP-14" edge="1">
          <mxGeometry width="50" height="50" relative="1" as="geometry">
            <mxPoint x="80" y="271.29" as="sourcePoint" />
            <mxPoint x="140" y="261.29" as="targetPoint" />
          </mxGeometry>
        </mxCell>
        <mxCell id="wgSMhbIbBcDnjp7fuCrP-16" value="UR_AP" style="rhombus;whiteSpace=wrap;html=1;rotation=-90;" parent="1" vertex="1">
          <mxGeometry x="146.85" y="514.44" width="135" height="88.71" as="geometry" />
        </mxCell>
        <mxCell id="wgSMhbIbBcDnjp7fuCrP-17" value="" style="endArrow=none;html=1;rounded=0;entryX=1;entryY=1;entryDx=0;entryDy=0;exitX=1;exitY=0.5;exitDx=0;exitDy=0;" parent="1" source="wgSMhbIbBcDnjp7fuCrP-16" target="wgSMhbIbBcDnjp7fuCrP-9" edge="1">
          <mxGeometry width="50" height="50" relative="1" as="geometry">
            <mxPoint x="23.890872965260087" y="417.39912703473993" as="sourcePoint" />
            <mxPoint x="70" y="351.29" as="targetPoint" />
          </mxGeometry>
        </mxCell>
        <mxCell id="wgSMhbIbBcDnjp7fuCrP-18" value="" style="endArrow=none;html=1;rounded=0;entryX=0.5;entryY=1;entryDx=0;entryDy=0;" parent="1" source="wgSMhbIbBcDnjp7fuCrP-16" target="wgSMhbIbBcDnjp7fuCrP-19" edge="1">
          <mxGeometry width="50" height="50" relative="1" as="geometry">
            <mxPoint x="-68" y="444.29" as="sourcePoint" />
            <mxPoint x="-98" y="414.29" as="targetPoint" />
            <Array as="points" />
          </mxGeometry>
        </mxCell>
        <mxCell id="wgSMhbIbBcDnjp7fuCrP-19" value="URAP_ID" style="ellipse;whiteSpace=wrap;html=1;rotation=-90;" parent="1" vertex="1">
          <mxGeometry x="48.54" y="576.29" width="100" height="35" as="geometry" />
        </mxCell>
        <mxCell id="wgSMhbIbBcDnjp7fuCrP-20" value="" style="endArrow=none;html=1;rounded=0;entryX=0.5;entryY=1;entryDx=0;entryDy=0;exitX=0.662;exitY=0.182;exitDx=0;exitDy=0;exitPerimeter=0;" parent="1" source="wgSMhbIbBcDnjp7fuCrP-16" target="wgSMhbIbBcDnjp7fuCrP-21" edge="1">
          <mxGeometry width="50" height="50" relative="1" as="geometry">
            <mxPoint x="-50" y="411.29" as="sourcePoint" />
            <mxPoint x="-40" y="381.29" as="targetPoint" />
          </mxGeometry>
        </mxCell>
        <mxCell id="wgSMhbIbBcDnjp7fuCrP-21" value="RoleId" style="ellipse;whiteSpace=wrap;html=1;rotation=-30;" parent="1" vertex="1">
          <mxGeometry x="100" y="496.29" width="80" height="30" as="geometry" />
        </mxCell>
        <mxCell id="wgSMhbIbBcDnjp7fuCrP-22" value="" style="endArrow=none;html=1;rounded=0;entryX=0.656;entryY=0.851;entryDx=0;entryDy=0;entryPerimeter=0;exitX=0.685;exitY=0.103;exitDx=0;exitDy=0;exitPerimeter=0;" parent="1" source="wgSMhbIbBcDnjp7fuCrP-23" target="wgSMhbIbBcDnjp7fuCrP-16" edge="1">
          <mxGeometry width="50" height="50" relative="1" as="geometry">
            <mxPoint x="90" y="451.29" as="sourcePoint" />
            <mxPoint x="30" y="456.29" as="targetPoint" />
          </mxGeometry>
        </mxCell>
        <mxCell id="wgSMhbIbBcDnjp7fuCrP-23" value="AP_ID" style="ellipse;whiteSpace=wrap;html=1;rotation=0;" parent="1" vertex="1">
          <mxGeometry x="210" y="440" width="100" height="36.29" as="geometry" />
        </mxCell>
        <mxCell id="wgSMhbIbBcDnjp7fuCrP-24" value="PRIVILEGE" style="rounded=0;whiteSpace=wrap;html=1;" parent="1" vertex="1">
          <mxGeometry x="-170" y="541.9" width="120" height="60" as="geometry" />
        </mxCell>
        <mxCell id="wgSMhbIbBcDnjp7fuCrP-25" value="" style="endArrow=none;html=1;rounded=0;entryX=0;entryY=0.5;entryDx=0;entryDy=0;exitX=1;exitY=0.25;exitDx=0;exitDy=0;" parent="1" source="wgSMhbIbBcDnjp7fuCrP-29" target="wgSMhbIbBcDnjp7fuCrP-16" edge="1">
          <mxGeometry width="50" height="50" relative="1" as="geometry">
            <mxPoint x="-100" y="540.86" as="sourcePoint" />
            <mxPoint x="-50" y="490.86" as="targetPoint" />
          </mxGeometry>
        </mxCell>
        <mxCell id="wgSMhbIbBcDnjp7fuCrP-26" value="&lt;font style=&quot;font-size: 20px;&quot;&gt;d&lt;/font&gt;" style="ellipse;whiteSpace=wrap;html=1;aspect=fixed;" parent="1" vertex="1">
          <mxGeometry x="-140" y="651.29" width="40" height="40" as="geometry" />
        </mxCell>
        <mxCell id="wgSMhbIbBcDnjp7fuCrP-27" value="" style="endArrow=none;html=1;rounded=0;entryX=0;entryY=1;entryDx=0;entryDy=0;exitX=0.5;exitY=0;exitDx=0;exitDy=0;" parent="1" source="wgSMhbIbBcDnjp7fuCrP-28" target="wgSMhbIbBcDnjp7fuCrP-26" edge="1">
          <mxGeometry width="50" height="50" relative="1" as="geometry">
            <mxPoint x="-260" y="726.29" as="sourcePoint" />
            <mxPoint x="-205" y="676.29" as="targetPoint" />
          </mxGeometry>
        </mxCell>
        <mxCell id="wgSMhbIbBcDnjp7fuCrP-28" value="RELATION_PRIVILEGE" style="rounded=0;whiteSpace=wrap;html=1;" parent="1" vertex="1">
          <mxGeometry x="-255" y="732.29" width="140" height="50" as="geometry" />
        </mxCell>
        <mxCell id="wgSMhbIbBcDnjp7fuCrP-29" value="ACCOUNT_PRIVILEGE" style="rounded=0;whiteSpace=wrap;html=1;" parent="1" vertex="1">
          <mxGeometry x="-82.5" y="732.29" width="135" height="50" as="geometry" />
        </mxCell>
        <mxCell id="wgSMhbIbBcDnjp7fuCrP-30" value="" style="endArrow=none;html=1;rounded=0;exitX=0;exitY=0.5;exitDx=0;exitDy=0;entryX=0.5;entryY=1;entryDx=0;entryDy=0;" parent="1" source="wgSMhbIbBcDnjp7fuCrP-28" target="wgSMhbIbBcDnjp7fuCrP-31" edge="1">
          <mxGeometry width="50" height="50" relative="1" as="geometry">
            <mxPoint x="-365" y="741.29" as="sourcePoint" />
            <mxPoint x="-410" y="641.29" as="targetPoint" />
          </mxGeometry>
        </mxCell>
        <mxCell id="wgSMhbIbBcDnjp7fuCrP-31" value="USER_RELATION_TABLE" style="rhombus;whiteSpace=wrap;html=1;rotation=-30;" parent="1" vertex="1">
          <mxGeometry x="-530" y="571.29" width="190" height="80" as="geometry" />
        </mxCell>
        <mxCell id="wgSMhbIbBcDnjp7fuCrP-32" value="PRIVILEGE_ID" style="ellipse;whiteSpace=wrap;html=1;rotation=-45;" parent="1" vertex="1">
          <mxGeometry x="-260" y="506.29" width="100" height="35" as="geometry" />
        </mxCell>
        <mxCell id="wgSMhbIbBcDnjp7fuCrP-33" value="" style="endArrow=none;html=1;rounded=0;entryX=0.5;entryY=1;entryDx=0;entryDy=0;exitX=0;exitY=0;exitDx=0;exitDy=0;" parent="1" source="wgSMhbIbBcDnjp7fuCrP-24" target="wgSMhbIbBcDnjp7fuCrP-32" edge="1">
          <mxGeometry width="50" height="50" relative="1" as="geometry">
            <mxPoint x="-220" y="504.29" as="sourcePoint" />
            <mxPoint x="-260" y="496.29" as="targetPoint" />
            <Array as="points" />
          </mxGeometry>
        </mxCell>
        <mxCell id="wgSMhbIbBcDnjp7fuCrP-34" value="" style="endArrow=none;html=1;rounded=0;entryX=0.6;entryY=1.058;entryDx=0;entryDy=0;entryPerimeter=0;exitX=0.667;exitY=-0.01;exitDx=0;exitDy=0;exitPerimeter=0;" parent="1" source="wgSMhbIbBcDnjp7fuCrP-24" target="wgSMhbIbBcDnjp7fuCrP-35" edge="1">
          <mxGeometry width="50" height="50" relative="1" as="geometry">
            <mxPoint x="-51.45999999999998" y="565.86" as="sourcePoint" />
            <mxPoint x="28.539999999999964" y="555.86" as="targetPoint" />
          </mxGeometry>
        </mxCell>
        <mxCell id="wgSMhbIbBcDnjp7fuCrP-35" value="PRIVILEGE_NAME" style="ellipse;whiteSpace=wrap;html=1;rotation=0;" parent="1" vertex="1">
          <mxGeometry x="-110" y="476.29" width="120" height="30" as="geometry" />
        </mxCell>
        <mxCell id="wgSMhbIbBcDnjp7fuCrP-36" value="PRIVILEGE_TYPE" style="ellipse;whiteSpace=wrap;html=1;rotation=-80;" parent="1" vertex="1">
          <mxGeometry x="-52.5" y="561.29" width="105" height="50" as="geometry" />
        </mxCell>
        <mxCell id="wgSMhbIbBcDnjp7fuCrP-37" value="" style="endArrow=none;html=1;rounded=0;entryX=0.5;entryY=0;entryDx=0;entryDy=0;exitX=1;exitY=1;exitDx=0;exitDy=0;" parent="1" source="wgSMhbIbBcDnjp7fuCrP-24" target="wgSMhbIbBcDnjp7fuCrP-36" edge="1">
          <mxGeometry width="50" height="50" relative="1" as="geometry">
            <mxPoint x="-100" y="601.29" as="sourcePoint" />
            <mxPoint x="-70" y="561.9" as="targetPoint" />
          </mxGeometry>
        </mxCell>
        <mxCell id="wgSMhbIbBcDnjp7fuCrP-38" value="ACCOUNT_ID" style="ellipse;whiteSpace=wrap;html=1;rotation=0;" parent="1" vertex="1">
          <mxGeometry x="-90" y="841.29" width="138.54" height="42.38" as="geometry" />
        </mxCell>
        <mxCell id="wgSMhbIbBcDnjp7fuCrP-39" value="" style="endArrow=none;html=1;rounded=0;entryX=0.5;entryY=0;entryDx=0;entryDy=0;exitX=0.448;exitY=1.055;exitDx=0;exitDy=0;exitPerimeter=0;" parent="1" source="wgSMhbIbBcDnjp7fuCrP-29" target="wgSMhbIbBcDnjp7fuCrP-38" edge="1">
          <mxGeometry width="50" height="50" relative="1" as="geometry">
            <mxPoint x="-103.81000000000006" y="781.29" as="sourcePoint" />
            <mxPoint x="-92.22000000000003" y="841.29" as="targetPoint" />
          </mxGeometry>
        </mxCell>
        <mxCell id="wgSMhbIbBcDnjp7fuCrP-40" value="TABLES" style="rounded=0;whiteSpace=wrap;html=1;" parent="1" vertex="1">
          <mxGeometry x="-520" y="404.83000000000004" width="110" height="36.46" as="geometry" />
        </mxCell>
        <mxCell id="wgSMhbIbBcDnjp7fuCrP-41" value="OWNS_TABLE" style="rhombus;whiteSpace=wrap;html=1;rotation=-45;" parent="1" vertex="1">
          <mxGeometry x="-420" y="291.29" width="80" height="80" as="geometry" />
        </mxCell>
        <mxCell id="wgSMhbIbBcDnjp7fuCrP-42" value="" style="endArrow=none;html=1;rounded=0;entryX=0.5;entryY=1;entryDx=0;entryDy=0;exitX=1;exitY=0.5;exitDx=0;exitDy=0;" parent="1" source="wgSMhbIbBcDnjp7fuCrP-41" target="wgSMhbIbBcDnjp7fuCrP-1" edge="1">
          <mxGeometry width="50" height="50" relative="1" as="geometry">
            <mxPoint x="-400" y="311.29" as="sourcePoint" />
            <mxPoint x="-350" y="261.29" as="targetPoint" />
          </mxGeometry>
        </mxCell>
        <mxCell id="wgSMhbIbBcDnjp7fuCrP-43" value="" style="endArrow=none;html=1;rounded=0;" parent="1" source="wgSMhbIbBcDnjp7fuCrP-46" target="wgSMhbIbBcDnjp7fuCrP-40" edge="1">
          <mxGeometry width="50" height="50" relative="1" as="geometry">
            <mxPoint x="-430" y="381.29" as="sourcePoint" />
            <mxPoint x="-330" y="401.29" as="targetPoint" />
          </mxGeometry>
        </mxCell>
        <mxCell id="wgSMhbIbBcDnjp7fuCrP-44" value="" style="endArrow=none;html=1;rounded=0;exitX=0.25;exitY=0;exitDx=0;exitDy=0;entryX=0.436;entryY=1.027;entryDx=0;entryDy=0;entryPerimeter=0;" parent="1" source="wgSMhbIbBcDnjp7fuCrP-40" target="wgSMhbIbBcDnjp7fuCrP-5" edge="1">
          <mxGeometry width="50" height="50" relative="1" as="geometry">
            <mxPoint x="-530" y="411.29" as="sourcePoint" />
            <mxPoint x="-530" y="361.29" as="targetPoint" />
          </mxGeometry>
        </mxCell>
        <mxCell id="wgSMhbIbBcDnjp7fuCrP-45" value="PHONE" style="ellipse;whiteSpace=wrap;html=1;" parent="1" vertex="1">
          <mxGeometry x="-490" y="191.29000000000002" width="100" height="30" as="geometry" />
        </mxCell>
        <mxCell id="wgSMhbIbBcDnjp7fuCrP-46" value="TABLE_NAME" style="ellipse;whiteSpace=wrap;html=1;" parent="1" vertex="1">
          <mxGeometry x="-370" y="381.29" width="100" height="30" as="geometry" />
        </mxCell>
        <mxCell id="wgSMhbIbBcDnjp7fuCrP-47" value="OWNER_ID" style="ellipse;whiteSpace=wrap;html=1;" parent="1" vertex="1">
          <mxGeometry x="-550" y="466.29" width="100" height="30" as="geometry" />
        </mxCell>
        <mxCell id="wgSMhbIbBcDnjp7fuCrP-48" value="" style="endArrow=none;html=1;rounded=0;exitX=0.25;exitY=1;exitDx=0;exitDy=0;" parent="1" source="wgSMhbIbBcDnjp7fuCrP-40" edge="1">
          <mxGeometry width="50" height="50" relative="1" as="geometry">
            <mxPoint x="-460" y="457.29" as="sourcePoint" />
            <mxPoint x="-507" y="466.29" as="targetPoint" />
          </mxGeometry>
        </mxCell>
        <mxCell id="wgSMhbIbBcDnjp7fuCrP-49" value="" style="endArrow=none;html=1;rounded=0;exitX=0.75;exitY=1;exitDx=0;exitDy=0;entryX=0.5;entryY=0;entryDx=0;entryDy=0;" parent="1" source="wgSMhbIbBcDnjp7fuCrP-40" target="wgSMhbIbBcDnjp7fuCrP-31" edge="1">
          <mxGeometry width="50" height="50" relative="1" as="geometry">
            <mxPoint x="-410" y="542.29" as="sourcePoint" />
            <mxPoint x="-457" y="551.29" as="targetPoint" />
          </mxGeometry>
        </mxCell>
        <mxCell id="wgSMhbIbBcDnjp7fuCrP-50" value="UId" style="ellipse;whiteSpace=wrap;html=1;" parent="1" vertex="1">
          <mxGeometry x="160" y="281.29" width="100" height="30" as="geometry" />
        </mxCell>
        <mxCell id="wgSMhbIbBcDnjp7fuCrP-51" value="" style="endArrow=none;html=1;rounded=0;entryX=0;entryY=0.5;entryDx=0;entryDy=0;exitX=0.987;exitY=0.387;exitDx=0;exitDy=0;exitPerimeter=0;" parent="1" source="wgSMhbIbBcDnjp7fuCrP-9" target="wgSMhbIbBcDnjp7fuCrP-50" edge="1">
          <mxGeometry width="50" height="50" relative="1" as="geometry">
            <mxPoint x="110" y="331.29" as="sourcePoint" />
            <mxPoint x="154" y="275.29" as="targetPoint" />
          </mxGeometry>
        </mxCell>
        <mxCell id="wgSMhbIbBcDnjp7fuCrP-52" value="" style="endArrow=none;html=1;rounded=0;exitX=0.5;exitY=0;exitDx=0;exitDy=0;entryX=0;entryY=0.5;entryDx=0;entryDy=0;" parent="1" source="wgSMhbIbBcDnjp7fuCrP-40" target="wgSMhbIbBcDnjp7fuCrP-41" edge="1">
          <mxGeometry width="50" height="50" relative="1" as="geometry">
            <mxPoint x="-460" y="406.29" as="sourcePoint" />
            <mxPoint x="-410" y="356.29" as="targetPoint" />
          </mxGeometry>
        </mxCell>
        <mxCell id="wgSMhbIbBcDnjp7fuCrP-53" value="" style="endArrow=none;html=1;rounded=0;entryX=0.343;entryY=-0.043;entryDx=0;entryDy=0;entryPerimeter=0;" parent="1" source="wgSMhbIbBcDnjp7fuCrP-55" target="wgSMhbIbBcDnjp7fuCrP-1" edge="1">
          <mxGeometry width="50" height="50" relative="1" as="geometry">
            <mxPoint x="-350" y="141.29000000000002" as="sourcePoint" />
            <mxPoint x="-280" y="181.29000000000002" as="targetPoint" />
          </mxGeometry>
        </mxCell>
        <mxCell id="wgSMhbIbBcDnjp7fuCrP-54" value="" style="endArrow=none;html=1;rounded=0;entryX=0.343;entryY=-0.043;entryDx=0;entryDy=0;entryPerimeter=0;" parent="1" target="wgSMhbIbBcDnjp7fuCrP-55" edge="1">
          <mxGeometry width="50" height="50" relative="1" as="geometry">
            <mxPoint x="-350" y="141.29000000000002" as="sourcePoint" />
            <mxPoint x="-339" y="203.29000000000002" as="targetPoint" />
          </mxGeometry>
        </mxCell>
        <mxCell id="wgSMhbIbBcDnjp7fuCrP-55" value="UID_NO" style="ellipse;whiteSpace=wrap;html=1;" parent="1" vertex="1">
          <mxGeometry x="-386.69" y="121.29" width="100" height="30" as="geometry" />
        </mxCell>
        <mxCell id="wgSMhbIbBcDnjp7fuCrP-56" value="URT_ID" style="ellipse;whiteSpace=wrap;html=1;rotation=-15;" parent="1" vertex="1">
          <mxGeometry x="-560" y="532.99" width="80" height="35" as="geometry" />
        </mxCell>
        <mxCell id="wgSMhbIbBcDnjp7fuCrP-57" value="" style="endArrow=none;html=1;rounded=0;entryX=0.339;entryY=1.102;entryDx=0;entryDy=0;exitX=0.291;exitY=0.25;exitDx=0;exitDy=0;exitPerimeter=0;entryPerimeter=0;" parent="1" source="wgSMhbIbBcDnjp7fuCrP-31" target="wgSMhbIbBcDnjp7fuCrP-56" edge="1">
          <mxGeometry width="50" height="50" relative="1" as="geometry">
            <mxPoint x="-515" y="616.29" as="sourcePoint" />
            <mxPoint x="-505" y="561.29" as="targetPoint" />
            <Array as="points" />
          </mxGeometry>
        </mxCell>
        <mxCell id="wgSMhbIbBcDnjp7fuCrP-58" value="Role_Id" style="ellipse;whiteSpace=wrap;html=1;rotation=-15;" parent="1" vertex="1">
          <mxGeometry x="-420" y="491.29" width="80" height="30" as="geometry" />
        </mxCell>
        <mxCell id="wgSMhbIbBcDnjp7fuCrP-59" value="" style="endArrow=none;html=1;rounded=0;entryX=0;entryY=1;entryDx=0;entryDy=0;exitX=1;exitY=0;exitDx=0;exitDy=0;" parent="1" source="wgSMhbIbBcDnjp7fuCrP-31" target="wgSMhbIbBcDnjp7fuCrP-58" edge="1">
          <mxGeometry width="50" height="50" relative="1" as="geometry">
            <mxPoint x="-390" y="584.9" as="sourcePoint" />
            <mxPoint x="-400" y="541.9" as="targetPoint" />
            <Array as="points" />
          </mxGeometry>
        </mxCell>
        <mxCell id="wgSMhbIbBcDnjp7fuCrP-60" value="RELATION_ID" style="ellipse;whiteSpace=wrap;html=1;rotation=-15;" parent="1" vertex="1">
          <mxGeometry x="-460" y="702.29" width="90" height="30" as="geometry" />
        </mxCell>
        <mxCell id="wgSMhbIbBcDnjp7fuCrP-61" value="Table_Id" style="ellipse;whiteSpace=wrap;html=1;rotation=0;" parent="1" vertex="1">
          <mxGeometry x="-557.0699999999999" y="711.29" width="80" height="30" as="geometry" />
        </mxCell>
        <mxCell id="wgSMhbIbBcDnjp7fuCrP-62" value="" style="endArrow=none;html=1;rounded=0;exitX=0.38;exitY=0.073;exitDx=0;exitDy=0;exitPerimeter=0;entryX=0.202;entryY=0.676;entryDx=0;entryDy=0;entryPerimeter=0;" parent="1" source="wgSMhbIbBcDnjp7fuCrP-61" target="wgSMhbIbBcDnjp7fuCrP-31" edge="1">
          <mxGeometry width="50" height="50" relative="1" as="geometry">
            <mxPoint x="-530" y="697.91" as="sourcePoint" />
            <mxPoint x="-500" y="671.29" as="targetPoint" />
            <Array as="points" />
          </mxGeometry>
        </mxCell>
        <mxCell id="wgSMhbIbBcDnjp7fuCrP-63" value="RELATION_ID" style="ellipse;whiteSpace=wrap;html=1;rotation=0;" parent="1" vertex="1">
          <mxGeometry x="-242.53" y="830" width="115.06" height="53.67" as="geometry" />
        </mxCell>
        <mxCell id="wgSMhbIbBcDnjp7fuCrP-64" value="" style="endArrow=none;html=1;rounded=0;exitX=0.354;exitY=1.016;exitDx=0;exitDy=0;exitPerimeter=0;" parent="1" source="wgSMhbIbBcDnjp7fuCrP-28" edge="1">
          <mxGeometry width="50" height="50" relative="1" as="geometry">
            <mxPoint x="-195" y="791.29" as="sourcePoint" />
            <mxPoint x="-205" y="828" as="targetPoint" />
          </mxGeometry>
        </mxCell>
        <mxCell id="wgSMhbIbBcDnjp7fuCrP-65" value="" style="endArrow=none;html=1;rounded=0;exitX=0.331;exitY=0.079;exitDx=0;exitDy=0;exitPerimeter=0;entryX=0.382;entryY=0.884;entryDx=0;entryDy=0;entryPerimeter=0;" parent="1" source="wgSMhbIbBcDnjp7fuCrP-60" target="wgSMhbIbBcDnjp7fuCrP-31" edge="1">
          <mxGeometry width="50" height="50" relative="1" as="geometry">
            <mxPoint x="-514" y="681.29" as="sourcePoint" />
            <mxPoint x="-450" y="659.29" as="targetPoint" />
            <Array as="points" />
          </mxGeometry>
        </mxCell>
        <mxCell id="wgSMhbIbBcDnjp7fuCrP-66" value="" style="endArrow=none;html=1;rounded=0;exitX=0;exitY=1;exitDx=0;exitDy=0;entryX=1;entryY=0.5;entryDx=0;entryDy=0;" parent="1" source="wgSMhbIbBcDnjp7fuCrP-9" target="wgSMhbIbBcDnjp7fuCrP-31" edge="1">
          <mxGeometry width="50" height="50" relative="1" as="geometry">
            <mxPoint x="-200" y="676.29" as="sourcePoint" />
            <mxPoint x="-380" y="578.29" as="targetPoint" />
          </mxGeometry>
        </mxCell>
        <mxCell id="wgSMhbIbBcDnjp7fuCrP-67" value="" style="endArrow=none;html=1;rounded=0;entryX=1;entryY=1;entryDx=0;entryDy=0;exitX=0.5;exitY=0;exitDx=0;exitDy=0;" parent="1" target="wgSMhbIbBcDnjp7fuCrP-26" edge="1">
          <mxGeometry width="50" height="50" relative="1" as="geometry">
            <mxPoint x="-51" y="733.29" as="sourcePoint" />
            <mxPoint y="676.29" as="targetPoint" />
          </mxGeometry>
        </mxCell>
        <mxCell id="wgSMhbIbBcDnjp7fuCrP-68" value="" style="endArrow=none;html=1;rounded=0;exitX=0.5;exitY=0;exitDx=0;exitDy=0;" parent="1" source="wgSMhbIbBcDnjp7fuCrP-26" edge="1">
          <mxGeometry width="50" height="50" relative="1" as="geometry">
            <mxPoint x="-101.5" y="649.52" as="sourcePoint" />
            <mxPoint x="-118.5" y="599.52" as="targetPoint" />
            <Array as="points" />
          </mxGeometry>
        </mxCell>
        <mxCell id="wgSMhbIbBcDnjp7fuCrP-69" value="" style="endArrow=none;html=1;rounded=0;exitX=0.5;exitY=0;exitDx=0;exitDy=0;" parent="1" edge="1">
          <mxGeometry width="50" height="50" relative="1" as="geometry">
            <mxPoint x="-115" y="651.29" as="sourcePoint" />
            <mxPoint x="-113.5" y="599.52" as="targetPoint" />
            <Array as="points" />
          </mxGeometry>
        </mxCell>
      </root>
    </mxGraphModel>
  </diagram>
</mxfile>
